<?xml version="1.0" encoding="UTF-8" standalone="no"?>
<!-- Created with Inkscape (http://www.inkscape.org/) -->
<svg
   xmlns:dc="http://purl.org/dc/elements/1.1/"
   xmlns:cc="http://creativecommons.org/ns#"
   xmlns:rdf="http://www.w3.org/1999/02/22-rdf-syntax-ns#"
   xmlns:svg="http://www.w3.org/2000/svg"
   xmlns="http://www.w3.org/2000/svg"
   xmlns:xlink="http://www.w3.org/1999/xlink"
   xmlns:sodipodi="http://sodipodi.sourceforge.net/DTD/sodipodi-0.dtd"
   xmlns:inkscape="http://www.inkscape.org/namespaces/inkscape"
   width="330"
   height="330"
   id="svg2455"
   sodipodi:version="0.32"
   inkscape:version="0.46"
   sodipodi:docbase="/home/matt/projects/opencheesemap/openstreetmap/java/html-images"
   sodipodi:docname="MapPINonOSM_logo.svg"
   inkscape:export-filename="/home/nazo/JAVA/MapPIN/htdocs/icons/logo.png"
   inkscape:export-xdpi="54.549999"
   inkscape:export-ydpi="54.549999"
   inkscape:output_extension="org.inkscape.output.svg.inkscape"
   version="1.0">
  <defs
     id="defs3">
    <inkscape:perspective
       sodipodi:type="inkscape:persp3d"
       inkscape:vp_x="0 : 165 : 1"
       inkscape:vp_y="0 : 1000 : 0"
       inkscape:vp_z="330 : 165 : 1"
       inkscape:persp3d-origin="165 : 110 : 1"
       id="perspective2456" />
    <linearGradient
       id="linearGradient5245">
      <stop
         style="stop-color:#005100;stop-opacity:1;"
         offset="0"
         id="stop5247" />
      <stop
         id="stop5253"
         offset="0.34273213"
         style="stop-color:#9fff69;stop-opacity:1;" />
      <stop
         style="stop-color:#34894b;stop-opacity:0.92156863;"
         offset="0.75401068"
         id="stop5255" />
      <stop
         style="stop-color:#005109;stop-opacity:1;"
         offset="1"
         id="stop5249" />
    </linearGradient>
    <linearGradient
       id="linearGradient4808">
      <stop
         style="stop-color:#626dff;stop-opacity:1;"
         offset="0"
         id="stop4810" />
      <stop
         style="stop-color:#0011fa;stop-opacity:1;"
         offset="1"
         id="stop4812" />
    </linearGradient>
    <linearGradient
       x1="30.059999"
       y1="30.059999"
       x2="225.94"
       y2="225.94"
       id="RSSg"
       gradientUnits="userSpaceOnUse"
       gradientTransform="matrix(0.1738179,0,0,0.1738179,164.61387,82.592502)">
      <stop
         offset="0.0"
         stop-color="#E3702D"
         id="stop2387" />
      <stop
         offset="0.1071"
         stop-color="#EA7D31"
         id="stop2389" />
      <stop
         offset="0.3503"
         stop-color="#F69537"
         id="stop2391" />
      <stop
         offset="0.5"
         stop-color="#FB9E3A"
         id="stop2393" />
      <stop
         offset="0.7016"
         stop-color="#EA7C31"
         id="stop2395" />
      <stop
         offset="0.8866"
         stop-color="#DE642B"
         id="stop2397" />
      <stop
         offset="1.0"
         stop-color="#D95B29"
         id="stop2399" />
    </linearGradient>
    <linearGradient
       id="linearGradient1754">
      <stop
         style="stop-color: rgb(116, 116, 116); stop-opacity: 1;"
         offset="0.0000000"
         id="stop1755" />
      <stop
         style="stop-color: rgb(190, 190, 190); stop-opacity: 1;"
         offset="0.50000000"
         id="stop1757" />
      <stop
         style="stop-color: rgb(213, 213, 213); stop-opacity: 1;"
         offset="0.62500000"
         id="stop1759" />
      <stop
         style="stop-color: rgb(195, 195, 195); stop-opacity: 1;"
         offset="1.0000000"
         id="stop1756" />
    </linearGradient>
    <linearGradient
       inkscape:collect="always"
       xlink:href="#linearGradient5245"
       id="linearGradient5286"
       gradientUnits="userSpaceOnUse"
       x1="159.49423"
       y1="366.09976"
       x2="297.11386"
       y2="380.86548" />
    <linearGradient
       inkscape:collect="always"
       xlink:href="#linearGradient4808"
       id="linearGradient5288"
       gradientUnits="userSpaceOnUse"
       gradientTransform="translate(0.9000803,0.9900883)"
       x1="184.33644"
       y1="334.79898"
       x2="231.03311"
       y2="363.96158" />
    <linearGradient
       inkscape:collect="always"
       xlink:href="#linearGradient1754"
       id="linearGradient5290"
       gradientUnits="userSpaceOnUse"
       gradientTransform="matrix(1,0,0,1.0978261,0,-38.501825)"
       x1="231.50066"
       y1="360.45126"
       x2="237.98123"
       y2="360.45126" />
    <linearGradient
       inkscape:collect="always"
       xlink:href="#linearGradient4808"
       id="linearGradient5292"
       gradientUnits="userSpaceOnUse"
       gradientTransform="matrix(-1,0,0,1,469.0681,2.1601945)"
       x1="184.33644"
       y1="334.79898"
       x2="231.03311"
       y2="363.96158" />
    <linearGradient
       inkscape:collect="always"
       xlink:href="#linearGradient1754"
       id="linearGradient5321"
       gradientUnits="userSpaceOnUse"
       x1="171.73532"
       y1="101.40816"
       x2="179.6676"
       y2="101.40816"
       gradientTransform="translate(17.054263,29.653884)" />
  </defs>
  <sodipodi:namedview
     id="base"
     pagecolor="#ffffff"
     bordercolor="#666666"
     borderopacity="1.0"
     inkscape:pageopacity="0.0"
     inkscape:pageshadow="2"
     inkscape:zoom="0.6943825"
     inkscape:cx="193.11261"
     inkscape:cy="262.53018"
     inkscape:current-layer="svg2455"
     showgrid="true"
     inkscape:grid-bbox="true"
     inkscape:grid-points="true"
     inkscape:window-width="997"
     inkscape:window-height="676"
     inkscape:window-x="64"
     inkscape:window-y="0"
     showguides="true"
     inkscape:guide-bbox="true" />
  <metadata
     id="metadata4">
    <rdf:RDF>
      <cc:Work
         rdf:about="">
        <dc:format>image/svg+xml</dc:format>
        <dc:type
           rdf:resource="http://purl.org/dc/dcmitype/StillImage" />
        <cc:license
           rdf:resource="http://creativecommons.org/licenses/by-sa/3.0/" />
        <dc:title>MapPIN'onOSM</dc:title>
        <dc:creator>
          <cc:Agent>
            <dc:title />
          </cc:Agent>
        </dc:creator>
      </cc:Work>
      <cc:License
         rdf:about="http://creativecommons.org/licenses/by-sa/3.0/">
        <cc:permits
           rdf:resource="http://creativecommons.org/ns#Reproduction" />
        <cc:permits
           rdf:resource="http://creativecommons.org/ns#Distribution" />
        <cc:requires
           rdf:resource="http://creativecommons.org/ns#Notice" />
        <cc:requires
           rdf:resource="http://creativecommons.org/ns#Attribution" />
        <cc:permits
           rdf:resource="http://creativecommons.org/ns#DerivativeWorks" />
        <cc:requires
           rdf:resource="http://creativecommons.org/ns#ShareAlike" />
      </cc:License>
    </rdf:RDF>
  </metadata>
  <g
     id="OSM">
    <path
       style="fill:#ffffff;fill-opacity:1;fill-rule:evenodd;stroke:#000000;stroke-width:6.25;stroke-linecap:butt;stroke-linejoin:miter;stroke-miterlimit:4;stroke-opacity:1"
       d="M 17.61491,18.292406 L 88.582677,35.433051 L 159.44882,17.716515 L 230.31496,35.433051 L 301.1811,17.716515 L 318.89764,88.582657 L 301.1811,159.4488 L 318.89764,230.31494 L 301.1811,301.18108 L 230.31496,318.89762 L 159.44882,301.18108 L 88.582677,318.89762 L 17.716535,301.18108 L 35.433071,230.31494 L 17.716535,159.4488 L 35.433071,88.582657 L 17.61491,18.292406 z"
       id="path2522"
       sodipodi:nodetypes="ccccccccccccccccc" />
    <path
       style="fill:#e3ffc5;fill-opacity:1;fill-rule:evenodd;stroke:#000000;stroke-width:0.25pt;stroke-linecap:butt;stroke-linejoin:miter;stroke-opacity:1"
       d="M 19.6474,302.16346 L 35.433071,230.31494 L 17.716535,159.4488 L 35.433071,88.582657 L 17.716535,17.716515 L 88.582677,35.433051 L 159.44882,17.716515 L 230.31496,35.433051 L 301.1811,17.716515 L 318.89764,88.582657 L 301.1811,159.4488 L 318.89764,230.31494 L 301.1811,301.18108 L 230.31496,318.89762 L 159.44882,301.18108 L 88.582677,318.89762 L 19.6474,302.16346 z"
       id="path1278" />
    <path
       style="fill:#91d55d;fill-opacity:1;fill-rule:evenodd;stroke:none;stroke-width:1pt;stroke-linecap:butt;stroke-linejoin:miter;stroke-opacity:1"
       d="M 194.88189,141.73226 C 194.88189,139.42878 194.88189,137.12529 194.88189,134.82181 C 194.88189,124.88451 193.12345,124.01573 183.60156,124.01573 C 168.88499,124.01573 186.23563,141.73226 168.01914,141.73226 C 153.19211,141.73226 180.78317,107.0705 113.14192,148.37174 C 99.587288,156.6481 107.0624,141.73226 115.17441,141.73226 C 127.46738,141.73226 127.44018,124.01573 115.85191,124.01573 C 112.00344,124.01573 124.01575,119.70037 124.01575,115.85191 C 124.01575,108.06121 152.92157,98.914494 134.82181,98.914494 C 127.5373,98.914494 124.01575,112.14706 124.01575,94.849515 C 124.01575,86.735407 140.57256,78.898609 124.01575,77.234605 C 121.90356,77.022325 124.01575,72.988949 124.01575,70.866122 C 124.01575,67.241513 109.51731,70.866122 113.14192,70.866122 C 123.08965,70.866122 124.01575,69.167545 124.01575,59.619695 C 124.01575,54.176222 94.883157,45.845075 113.14192,44.037275 C 159.26796,39.470336 125.73669,17.716515 159.44882,17.716515 C 170.78539,17.716515 141.73228,35.410694 141.73228,46.747261 C 141.73228,62.199905 159.44882,43.344502 159.44882,61.652185 C 159.44882,80.802288 186.71647,78.589598 205.28145,78.589598 C 207.72044,78.589598 210.15943,78.589598 212.59843,78.589598 C 217.79257,78.589598 212.59843,68.201318 212.59843,63.007178 C 212.59843,48.581219 258.71934,39.283702 254.7387,53.149586 C 252.90251,59.545614 237.40329,60.213758 230.31496,62.329681 C 217.5932,66.127229 270.26349,116.5294 239.83377,116.5294 C 224.51505,116.5294 234.37404,106.29919 220.18637,106.29919 C 212.18624,106.29919 248.0315,123.62098 248.0315,141.73226 C 248.0315,152.73034 223.34022,134.89556 212.59843,132.78932 C 208.07111,131.90161 206.50749,124.01573 201.89397,124.01573 C 179.80637,124.01573 212.59843,154.56515 212.59843,159.4488 C 212.59843,161.75228 217.20539,159.4488 219.50888,159.4488 C 224.74013,159.4488 194.88189,167.13135 194.88189,149.72673 C 194.88189,147.06191 194.88189,144.39709 194.88189,141.73226 z"
       id="path2682" />
    <path
       style="fill:#72acff;fill-opacity:1;fill-rule:evenodd;stroke:none;stroke-width:1pt;stroke-linecap:butt;stroke-linejoin:miter;stroke-opacity:1"
       d="M 159.44882,141.73226 C 171.33207,141.9328 177.16535,143.66057 177.16535,130.75683 C 177.16535,99.780679 205.28145,98.806371 205.28145,124.01573 C 205.28145,128.36582 212.59843,130.47172 212.59843,134.82181 C 212.59843,149.97774 216.5303,153.11422 201.89397,153.11422 C 199.55661,153.11422 197.21925,153.11422 194.88189,153.11422 C 191.27609,153.11422 205.45882,126.91819 185.63405,141.73226 C 178.3235,147.19507 168.41817,148.04235 159.44882,149.72673 C 151.83874,151.15586 141.73228,153.35155 141.73228,141.73226 C 141.73228,131.20082 124.01575,100.49766 124.01575,115.17441 C 124.01575,121.26334 148.65264,130.77651 149.72673,141.73226 C 150.04293,144.9575 156.20812,141.73226 159.44882,141.73226 z"
       id="path1901" />
    <path
       style="fill:#999999;fill-opacity:1;fill-rule:evenodd;stroke:none;stroke-width:0.25pt;stroke-linecap:butt;stroke-linejoin:miter;stroke-opacity:1"
       d="M 106.36696,194.44151 L 114.49691,177.16533 L 113.81942,194.88187 L 124.01575,184.27906 L 141.73228,177.16533 L 132.11182,194.88187 L 141.73228,188.34404 L 150.40423,194.88187 L 159.44882,194.88187 L 148.37174,212.59841 L 141.73228,220.86387 L 132.78932,212.59841 L 124.01575,220.86387 L 124.01575,230.31494 L 106.29921,230.31494 L 124.01575,212.59841 L 106.29921,212.59841 L 99.591991,194.88187 L 106.36696,194.44151 z"
       id="path2680" />
    <path
       style="fill:none;fill-opacity:0.75;fill-rule:evenodd;stroke:#ff0000;stroke-width:2.5;stroke-linecap:butt;stroke-linejoin:miter;stroke-miterlimit:4;stroke-opacity:1"
       d="M 63.007178,31.842337 L 53.149606,53.149586 L 70.866142,61.652185 L 70.866142,88.582657 L 53.149606,113.14192 L 53.149606,130.75683 L 88.582677,150.40423 L 70.866142,167.34164 L 70.866142,177.16533 L 88.582677,194.88187 L 106.29921,177.16533 L 124.01575,194.88187 L 141.73228,237.12379 L 124.01575,283.46455 L 132.11182,283.46455 L 133.46682,307.58343"
       id="path2683" />
    <path
       style="fill:none;fill-opacity:0.75;fill-rule:evenodd;stroke:#ff0000;stroke-width:2.5;stroke-linecap:butt;stroke-linejoin:miter;stroke-miterlimit:4;stroke-dasharray:none;stroke-opacity:1"
       d="M 35.22982,302.84095 L 53.149606,283.46455 L 70.866142,301.18108 L 106.29921,283.46455 L 106.29921,265.74801 L 159.44882,283.46455 L 194.88189,283.46455 L 194.88189,265.74801 L 177.16535,248.03148 L 194.88189,212.59841 L 212.59843,194.88187 L 230.31496,212.59841 L 230.31496,230.31494 L 248.0315,230.31494 L 265.74803,212.59841 L 301.1811,212.59841 L 312.3259,201.89397"
       id="path1900" />
    <path
       style="fill:none;fill-opacity:0.75;fill-rule:evenodd;stroke:#243eb4;stroke-width:1pt;stroke-linecap:butt;stroke-linejoin:miter;stroke-opacity:1"
       d="M 27.303113,194.88187 C 38.817654,195.35339 43.339928,219.42161 53.149606,223.57386 C 63.812267,228.08715 66.049566,230.31494 81.299584,230.31494 C 93.699199,230.31494 82.541881,219.50888 98.236998,219.50888 C 105.8529,219.50888 124.01575,206.60286 124.01575,194.88187 C 124.01575,191.65693 150.57192,198.33835 152.43672,202.57146 C 155.58682,209.72221 170.05163,207.6289 170.05163,219.50888 C 170.05163,234.50572 159.44882,227.22554 159.44882,237.12379 C 159.44882,250.12369 153.3615,248.03148 141.73228,248.03148 C 136.88951,248.03148 137.42397,258.07673 132.78932,259.48117 C 116.61859,264.38139 142.91088,266.9206 148.37174,272.35361 C 151.1948,275.16227 164.7048,276.15658 168.01914,276.41859 C 177.32113,277.15392 178.86646,274.05685 187.66654,272.35361 C 206.80252,268.64987 203.24896,257.90384 203.24896,241.18877 C 203.24896,231.65865 203.24896,222.12853 203.24896,212.59841 C 203.24896,210.07117 219.5092,230.31494 220.18637,230.31494 C 227.41395,230.31494 238.32819,221.04495 239.15628,212.59841 C 239.59179,208.15616 248.0315,207.03501 248.0315,202.57146 C 248.0315,202.1198 248.0315,201.66814 248.0315,201.21647 C 248.0315,185.1233 241.52235,159.4488 259.48117,159.4488 C 267.19863,159.4488 266.66864,141.73226 274.3861,141.73226 C 280.33034,141.73226 275.02262,129.32708 272.35361,124.01573 C 268.08495,115.52109 256.83967,106.29919 275.74109,106.29919 C 286.64496,106.29919 286.31103,88.582657 276.41859,88.582657 C 269.19196,88.582657 261.96533,88.582657 254.7387,88.582657 C 191.07954,88.582657 223.21833,70.866122 205.28145,70.866122 C 201.67439,70.866122 194.88189,59.448193 194.88189,53.149586 C 194.88189,45.879313 230.31496,65.660553 230.31496,35.433051 C 230.31496,35.433051 230.31496,35.433051 230.31496,35.433051"
       id="path2679"
       sodipodi:nodetypes="ccccccccccccccccccccccccccccc" />
    <g
       id="g1922">
      <path
         style="fill:none;fill-opacity:0.75;fill-rule:evenodd;stroke:#826d35;stroke-width:0.375;stroke-linecap:butt;stroke-linejoin:miter;stroke-miterlimit:4;stroke-dasharray:none;stroke-opacity:1"
         d="M 17.716535,159.4488 C 15.536826,150.48476 36.167024,159.4488 45.392268,159.4488 C 61.447424,159.4488 44.647709,177.16533 60.974688,177.16533 C 70.177351,177.16533 79.380014,177.16533 88.582677,177.16533 C 90.187689,177.16533 83.787935,159.4488 96.882005,159.4488 C 104.66707,159.4488 103.20723,124.01573 113.14192,124.01573 C 116.70051,124.01573 116.89475,102.31693 117.2069,98.914494 C 118.85911,80.90542 141.73228,73.689901 141.73228,46.069764 C 141.73228,36.618681 141.73228,33.942563 141.73228,24.49148"
         id="path1903"
         sodipodi:nodetypes="ccccccccc" />
      <path
         style="fill:none;fill-opacity:0.75;fill-rule:evenodd;stroke:#826d35;stroke-width:0.375;stroke-linecap:butt;stroke-linejoin:miter;stroke-miterlimit:4;stroke-dasharray:none;stroke-opacity:1"
         d="M 25.067372,141.73226 C 25.067372,129.76316 49.005583,141.73226 60.974688,141.73226 C 85.48122,141.73226 73.116804,135.51556 88.582677,130.75683 C 102.01771,126.62298 72.648838,106.29919 96.204508,106.29919 C 99.223782,106.29919 92.127469,88.582657 106.29921,88.582657 C 120.69601,88.582657 106.29921,59.789064 106.29921,45.392268 C 106.29921,42.072529 106.29921,38.75279 106.29921,35.433051"
         id="path1904"
         sodipodi:nodetypes="ccccccc" />
      <path
         style="fill:none;fill-opacity:0.75;fill-rule:evenodd;stroke:#826d35;stroke-width:0.375;stroke-linecap:butt;stroke-linejoin:miter;stroke-miterlimit:4;stroke-dasharray:none;stroke-opacity:1"
         d="M 177.16535,17.716515 C 177.16535,26.715934 177.16535,35.715353 177.16535,44.714771 C 177.16535,63.269426 159.44882,43.478141 159.44882,60.297192 C 159.44882,71.107216 159.07359,77.416902 151.08173,81.299584 C 144.68546,84.407078 139.74647,101.3473 134.14431,106.29919 C 122.78633,116.3388 117.2069,104.03122 117.2069,124.01573 C 117.2069,128.27316 124.01575,130.56438 124.01575,134.82181 C 124.01575,158.44417 106.29921,150.4714 106.29921,168.69664 C 106.29921,179.64767 88.582677,175.51083 88.582677,194.88187 C 88.582677,201.31965 77.188086,201.35571 70.866142,202.57146 C 69.71445,202.79294 66.899622,212.59841 53.149606,212.59841 C 52.795681,212.59841 56.03717,194.88187 43.359778,194.88187 C 37.311239,194.88187 27.863071,184.72905 26.422365,177.16533 C 26.41363,177.11948 24.532362,177.16533 24.389875,177.16533"
         id="path1905" />
      <path
         style="fill:none;fill-opacity:0.75;fill-rule:evenodd;stroke:#826d35;stroke-width:0.375;stroke-linecap:butt;stroke-linejoin:miter;stroke-miterlimit:4;stroke-dasharray:none;stroke-opacity:1"
         d="M 35.433071,248.03148 C 33.832389,239.62788 49.511607,265.74801 60.297192,265.74801 C 74.11517,265.74801 79.500559,268.35153 88.582677,258.80368 C 91.559171,255.67455 97.392815,251.14174 99.591991,248.03148 C 106.69472,237.98618 106.29921,275.70718 106.29921,275.74109 C 106.29921,281.36799 118.27199,290.96395 124.01575,292.6785 C 132.836,295.31141 144.14453,291.84833 152.43672,291.32351 C 154.76942,291.17587 157.11145,291.32351 159.44882,291.32351 C 162.73468,291.32351 159.44882,297.89522 159.44882,301.18108"
         id="path1906" />
      <path
         style="fill:none;fill-opacity:0.75;fill-rule:evenodd;stroke:#826d35;stroke-width:0.375;stroke-linecap:butt;stroke-linejoin:miter;stroke-miterlimit:4;stroke-dasharray:none;stroke-opacity:1"
         d="M 167.6804,301.18108 C 174.56829,301.18108 181.45616,301.18108 183.60156,301.18108 C 193.39581,301.18108 201.86365,293.62789 212.59843,290.64601 C 214.90492,290.00532 212.59843,285.85837 212.59843,283.46455 C 212.59843,276.82884 230.31496,281.02181 230.31496,274.3861 C 230.31496,241.11193 243.50852,255.85763 265.74803,239.12239 C 274.7983,232.31206 280.95699,246.70871 283.46457,221.50749 C 283.67812,219.36139 299.0244,230.31494 301.1811,230.31494 C 315.4556,230.31494 296.91612,201.97502 292.6785,188.34404 C 291.33429,184.02014 300.24443,178.17905 301.1811,177.16533"
         id="path1907"
         sodipodi:nodetypes="cccccccccc" />
      <path
         style="fill:none;fill-opacity:0.75;fill-rule:evenodd;stroke:#826d35;stroke-width:0.375;stroke-linecap:butt;stroke-linejoin:miter;stroke-miterlimit:4;stroke-dasharray:none;stroke-opacity:1"
         d="M 212.59843,312.3259 C 210.99182,307.15799 268.23795,265.74801 276.41859,265.74801 C 287.48436,265.74801 298.55014,265.74801 309.61592,265.74801"
         id="path1908" />
    </g>
    <g
       id="g2671">
      <path
         style="opacity:0.32926803;fill:none;fill-opacity:0.75;fill-rule:evenodd;stroke:#000000;stroke-width:1.25;stroke-linecap:butt;stroke-linejoin:miter;stroke-miterlimit:4;stroke-dasharray:10, 1.25;stroke-dashoffset:0;stroke-opacity:1"
         d="M 35.907316,88.752046 L 106.29921,106.29919 L 177.16535,88.582657 L 248.0315,106.29919 L 318.89764,88.582657"
         id="path2523" />
      <path
         style="opacity:0.32926803;fill:none;fill-opacity:0.75;fill-rule:evenodd;stroke:#000000;stroke-width:1.25;stroke-linecap:butt;stroke-linejoin:miter;stroke-miterlimit:4;stroke-dasharray:10, 1.25;stroke-dashoffset:0;stroke-opacity:1"
         d="M 87.397053,36.584813 L 106.29921,106.29919 L 88.582677,177.16533 L 106.29921,248.03148 L 88.582677,318.89762"
         id="path2524" />
      <path
         style="opacity:0.32926803;fill:none;fill-opacity:0.75;fill-rule:evenodd;stroke:#000000;stroke-width:1.25;stroke-linecap:butt;stroke-linejoin:miter;stroke-miterlimit:4;stroke-dasharray:10, 1.25;stroke-dashoffset:0;stroke-opacity:1"
         d="M 158.10695,18.868282 L 177.0091,88.582659 L 159.29257,159.4488 L 177.0091,230.31495 L 159.29257,301.18109"
         id="path2525" />
      <path
         style="opacity:0.32926803;fill:none;fill-opacity:0.75;fill-rule:evenodd;stroke:#000000;stroke-width:1.25;stroke-linecap:butt;stroke-linejoin:miter;stroke-miterlimit:4;stroke-dasharray:10, 1.25;stroke-dashoffset:0;stroke-opacity:1"
         d="M 229.12935,36.584816 L 248.0315,106.29919 L 230.31497,177.16533 L 248.0315,248.03148 L 230.31497,318.89762"
         id="path2526" />
      <path
         style="opacity:0.32926803;fill:none;fill-opacity:0.75;fill-rule:evenodd;stroke:#000000;stroke-width:1.25;stroke-linecap:butt;stroke-linejoin:miter;stroke-miterlimit:4;stroke-dasharray:10, 1.25;stroke-dashoffset:0;stroke-opacity:1"
         d="M 17.716535,159.77444 L 88.108429,177.32158 L 158.97457,159.60505 L 229.84072,177.32158 L 300.70686,159.60505"
         id="path2527" />
      <path
         style="opacity:0.32926803;fill:none;fill-opacity:0.75;fill-rule:evenodd;stroke:#000000;stroke-width:1.25;stroke-linecap:butt;stroke-linejoin:miter;stroke-miterlimit:4;stroke-dasharray:10, 1.25;stroke-dashoffset:0;stroke-opacity:1"
         d="M 35.433071,230.31494 L 105.82496,247.86208 L 176.69111,230.14555 L 247.55726,247.86208 L 318.4234,230.14555"
         id="path2528" />
      <path
         style="fill:none;fill-opacity:1;fill-rule:evenodd;stroke:#000000;stroke-width:6.25;stroke-linecap:butt;stroke-linejoin:miter;stroke-miterlimit:4;stroke-opacity:1"
         d="M 17.61491,18.292406 L 88.582677,35.433051 L 159.44882,17.716515 L 230.31496,35.433051 L 301.1811,17.716515 L 318.89764,88.582657 L 301.1811,159.4488 L 318.89764,230.31494 L 301.1811,301.18108 L 230.31496,318.89762 L 159.44882,301.18108 L 88.582677,318.89762 L 17.716535,301.18108 L 35.433071,230.31494 L 17.716535,159.4488 L 35.433071,88.582657 L 17.61491,18.292406 z"
         id="path2670"
         sodipodi:nodetypes="ccccccccccccccccc" />
    </g>
  </g>
  <g
     id="photo"
     transform="matrix(1.464162,0.1381675,-0.1381675,1.464162,-96.164966,-402.09162)">
    <rect
       ry="0"
       rx="0"
       y="326.00089"
       x="164.09047"
       height="74.886681"
       width="135.37207"
       id="rect5314"
       style="opacity:1;fill:#000000;fill-opacity:0.36301371;stroke:none;stroke-width:2;stroke-linecap:butt;stroke-linejoin:round;stroke-miterlimit:4;stroke-dasharray:none;stroke-dashoffset:0;stroke-opacity:1" />
    <rect
       ry="0"
       rx="0"
       y="319.76764"
       x="159.85426"
       height="74.886681"
       width="135.37207"
       id="frame"
       style="opacity:1;fill:#ebffff;fill-opacity:0.96078431;stroke:#000000;stroke-width:2;stroke-linecap:butt;stroke-linejoin:round;stroke-miterlimit:4;stroke-dasharray:none;stroke-dashoffset:0;stroke-opacity:1" />
    <path
       id="bush"
       d="M 160.21429,362.61146 C 160.21429,362.61146 174.69668,354.79891 181.45619,355.05078 C 187.5933,355.27946 194.05068,363.74875 200.17786,363.33152 C 209.41887,362.70225 220.33965,347.49011 226.4602,347.13008 C 232.58075,346.77004 252.38251,347.85014 262.10338,355.41082 C 271.82425,362.97149 277.94479,374.13249 286.22553,371.25223 C 294.50627,368.37197 295.58637,364.05159 295.58637,364.05159 L 295.22633,393.93425 L 159.49423,394.29428 L 160.21429,362.61146 z"
       style="fill:url(#linearGradient5286);fill-opacity:1;fill-rule:evenodd;stroke:none;stroke-width:1px;stroke-linecap:butt;stroke-linejoin:miter;stroke-opacity:1"
       sodipodi:nodetypes="cssssscccc" />
    <path
       sodipodi:nodetypes="cccccc"
       id="sign"
       d="M 231.68067,354.24071 L 196.39752,333.71887 L 185.23652,335.51903 L 188.47681,347.04006 L 231.86067,375.30258 C 232.13089,374.32193 231.54935,355.24238 231.68067,354.24071 z"
       style="fill:url(#linearGradient5288);fill-opacity:1;fill-rule:evenodd;stroke:none;stroke-width:1px;stroke-linecap:butt;stroke-linejoin:miter;stroke-opacity:1" />
    <rect
       y="320.84772"
       x="231.50066"
       height="72.726486"
       width="6.4805779"
       id="pole"
       style="opacity:1;fill:url(#linearGradient5290);fill-opacity:1;stroke:none;stroke-width:2;stroke-linecap:butt;stroke-linejoin:round;stroke-miterlimit:4;stroke-dasharray:none;stroke-dashoffset:0;stroke-opacity:1" />
    <path
       sodipodi:nodetypes="cccccc"
       id="path4816"
       d="M 238.2875,355.41082 L 273.57065,334.88898 L 284.73165,336.68914 L 281.49136,348.21017 L 238.1075,376.47269 C 237.83728,375.49204 238.41882,356.41249 238.2875,355.41082 z"
       style="fill:url(#linearGradient5292);fill-opacity:1;fill-rule:evenodd;stroke:none;stroke-width:1px;stroke-linecap:butt;stroke-linejoin:miter;stroke-opacity:1" />
    <text
       sodipodi:linespacing="100%"
       transform="matrix(0.853155,0.5216575,-0.5216575,0.853155,0,0)"
       id="text4820"
       y="194.08665"
       x="338.78375"
       style="font-size:11px;font-style:normal;font-variant:normal;font-weight:normal;font-stretch:normal;text-align:start;line-height:100%;writing-mode:lr-tb;text-anchor:start;fill:#ffffff;fill-opacity:1;stroke:none;stroke-width:1px;stroke-linecap:butt;stroke-linejoin:miter;stroke-opacity:1;font-family:Sans;-inkscape-font-specification:Sans"
       xml:space="preserve"><tspan
         y="194.08665"
         x="338.78375"
         style="font-size:11px;font-style:normal;font-variant:normal;font-weight:normal;font-stretch:normal;text-align:start;line-height:100%;writing-mode:lr-tb;text-anchor:start;fill:#ffffff;fill-opacity:1;font-family:Sans;-inkscape-font-specification:Sans"
         id="tspan4824"
         sodipodi:role="line">Open St.</tspan></text>
    <text
       sodipodi:linespacing="100%"
       transform="matrix(0.8297429,-0.5581458,0.5581458,0.8297429,0,0)"
       id="text4826"
       y="440.66614"
       x="-1.7877728"
       style="font-size:11px;font-style:normal;font-variant:normal;font-weight:normal;font-stretch:normal;text-align:start;line-height:100%;writing-mode:lr-tb;text-anchor:start;fill:#ffffff;fill-opacity:1;stroke:none;stroke-width:1px;stroke-linecap:butt;stroke-linejoin:miter;stroke-opacity:1;font-family:Sans;-inkscape-font-specification:Sans"
       xml:space="preserve"><tspan
         y="440.66614"
         x="-1.7877728"
         id="tspan4830"
         sodipodi:role="line">Map Av.</tspan></text>
  </g>
  <g
     id="RSS"
     transform="matrix(0.902907,0,0,0.902907,1.4430412,-18.623221)">
    <path
       style="fill:url(#linearGradient5321);fill-opacity:1;fill-rule:evenodd;stroke:none;stroke-width:1px;stroke-linecap:butt;stroke-linejoin:miter;stroke-opacity:1"
       d="M 188.78959,125.30152 L 191.48983,135.38242 L 194.01005,137.00257 C 194.01005,137.00257 196.53028,136.2825 196.7103,134.84238 C 196.89031,133.40225 194.91013,125.12151 194.91013,125.12151 L 188.78959,125.30152 z"
       id="needle" />
    <rect
       width="44.497383"
       height="44.497383"
       rx="9.5599842"
       ry="9.5599842"
       x="164.61386"
       y="82.592506"
       id="rect2401"
       style="fill:#cc5d15" />
    <rect
       width="42.759205"
       height="42.759205"
       rx="8.6908951"
       ry="8.6908951"
       x="165.48296"
       y="83.461594"
       id="rect2403"
       style="fill:#f49c52" />
    <rect
       width="41.021027"
       height="41.021027"
       rx="8.1694412"
       ry="8.1694412"
       x="166.35205"
       y="84.330681"
       id="rect2405"
       style="fill:url(#RSSg)" />
    <circle
       transform="matrix(0.1738179,0,0,0.1738179,164.61387,82.592502)"
       cx="68"
       cy="189"
       r="24"
       id="circle2407"
       sodipodi:cx="68"
       sodipodi:cy="189"
       sodipodi:rx="24"
       sodipodi:ry="24"
       style="fill:#ffffff" />
    <path
       d="M 192.42473,119.61571 L 186.51492,119.61571 C 186.51492,111.74396 180.13361,105.36265 172.26185,105.36265 L 172.26185,99.452838 C 183.3975,99.452838 192.42473,108.48007 192.42473,119.61571 z"
       id="path2409"
       style="fill:#ffffff" />
    <path
       d="M 196.59636,119.61571 C 196.59636,106.17614 185.70143,95.281209 172.26185,95.281209 L 172.26185,89.197582 C 189.06133,89.197582 202.67999,102.81624 202.67999,119.61571 L 196.59636,119.61571 z"
       id="path2411"
       style="fill:#ffffff" />
  </g>
  <g
     id="title letters">
    <rect
       y="249.3528"
       x="33.122955"
       height="44.643993"
       width="264.26355"
       id="rect3244"
       style="opacity:1;fill:#ffffff;fill-opacity:0.7883959;stroke:none;stroke-width:1;stroke-linecap:butt;stroke-linejoin:round;stroke-miterlimit:4;stroke-dasharray:none;stroke-dashoffset:0;stroke-opacity:1" />
    <text
       sodipodi:linespacing="100%"
       id="text2458"
       y="289.67642"
       x="33.122952"
       style="font-size:45px;font-style:normal;font-variant:normal;font-weight:normal;font-stretch:normal;text-align:start;line-height:100%;writing-mode:lr-tb;text-anchor:start;fill:#043b8c;fill-opacity:1;stroke:#ffffff;stroke-width:1;stroke-linecap:butt;stroke-linejoin:miter;stroke-miterlimit:4;stroke-dasharray:none;stroke-opacity:1;font-family:'みかちゃん-PB';-inkscape-font-specification:'みかちゃん-PB'"
       xml:space="preserve"><tspan
         style="font-size:45px;font-style:normal;font-variant:normal;font-weight:normal;font-stretch:normal;text-align:start;line-height:100%;writing-mode:lr-tb;text-anchor:start;fill:#043b8c;fill-opacity:1;font-family:'みかちゃん-PB';-inkscape-font-specification:'みかちゃん-PB'"
         y="289.67642"
         x="33.122952"
         id="tspan2462"
         sodipodi:role="line">MapPIN'on OSM</tspan></text>
  </g>
</svg>
